<svg xmlns="http://www.w3.org/2000/svg" width="250" height="250" viewBox="0 0 250 250" fill="none">
<rect width="250" height="250" fill="#FEFFFE"/>
<path d="M 60.08,124.77 C 60.08,120.32 62.98,119.31 65.34,119.31 C 68.09,119.31 70.45,120.94 70.45,124.77 C 70.45,128.08 68.35,130.31 65.27,130.31 C 62.19,130.31 60.08,128.28 60.08,124.77 Z M 60.89,143.51 C 60.89,139.93 62.93,138.23 65.36,138.23 H 65.75 C 68.25,138.23 70.02,139.73 70.02,143.11 V 173.89 C 70.02,177.27 68.25,178.77 65.75,178.77 H 65.36 C 62.86,178.77 60.89,177.27 60.89,173.89 V 143.51 Z" fill="#F05023"/>
<path d="M 74.93,143.91 C 74.25,141.61 75.41,137.96 79.73,137.96 C 82.23,137.96 83.69,139.04 84.92,142.36 L 94.89,166.52 L 105.06,141.81 C 106.15,138.91 107.44,137.96 109.88,137.96 C 113.7,137.96 115.29,141.41 114.24,144.59 L 100.05,175.72 C 98.82,178.42 97.33,179.03 95.23,178.96 C 92.86,178.89 91.64,177.74 90.34,174.84 L 74.93,143.91 Z" fill="#F05023"/>
<path d="M 116.02,159.11 C 116.02,147.11 125.01,137.14 136.94,137.14 H 138.44 C 149.83,137.14 158.75,146.29 158.75,158.7 C 158.75,170.36 149.42,179.51 137.62,179.51 H 136.87 C 125.35,179.51 116.02,170.97 116.02,159.11 Z M 148.45,159.11 C 148.45,150.91 143.19,145.76 136.94,145.76 H 136.6 C 129.46,145.76 125.35,151.42 125.35,158.7 C 125.35,166.45 130.15,171.17 136.87,171.17 H 137.35 C 144.35,171.17 148.45,166.05 148.45,159.11 Z" fill="#F05023"/>
<path d="M 167.74,146.51 H 164.79 C 161.41,146.51 160.01,144.81 160.01,142.23 V 141.82 C 160.01,139.05 161.61,137.73 164.79,137.73 H 167.88 V 130.38 C 167.88,126.87 169.71,125.17 172.34,125.17 H 172.96 C 175.46,125.17 177.16,126.53 177.16,130.04 V 137.73 H 184.7 C 188.08,137.73 189.44,139.26 189.44,141.82 V 142.36 C 189.44,145.06 187.94,146.51 184.56,146.51 H 177.02 V 164.76 C 177.02,169.94 178.72,170.96 183.04,170.96 H 185.11 C 187.81,170.96 188.97,172.73 188.97,175.03 C 188.97,177.67 187.74,178.96 184.91,178.96 H 181.76 C 172.55,178.96 167.74,174.71 167.74,164.6 V 146.51 Z" fill="#F05023"/>
<path d="M 15.67,144.51 C 12.98,148.27 11.91,151.75 11.91,157.72 V 192.45 C 11.91,196.01 14.68,197.31 16.41,197.31 C 18.88,197.31 20.79,195.31 20.79,192.78 V 174.19 L 21.29,174.1 C 24.71,178.62 28.89,179.51 34.19,179.51 C 41.07,179.51 47.31,176.48 50.12,172.29 C 37.96,166.24 25.02,157.93 15.67,144.51 Z" fill="#F05023"/>
<path d="M 20.08,140.16 C 24.01,137.91 27.99,137.14 32.44,137.14 H 32.98 C 45.91,137.14 54.43,146.63 54.43,159.24 C 54.43,162.01 54.09,164.71 53.41,166.55 C 42.29,161.74 30.29,153.81 20.08,140.16 Z" fill="#F05023"/>
<path d="M 4.23,129.39 L 12.12,115.81 C 12.67,114.87 13.42,115.01 13.83,116.09 L 19.22,130.93 C 19.71,132.29 18.81,132.84 17.66,131.95 L 12.95,128.21 L 5.14,130.11 C 4.19,130.36 3.71,129.95 4.23,129.39 Z" fill="black"/>
<path d="M 138.82,58.01 C 138.82,53.56 141.32,51.73 144.22,51.73 H 144.63 C 148.01,51.73 149.51,54.23 149.51,57.54 C 149.51,60.85 147.4,63.56 144.32,63.56 H 143.91 C 140.83,63.56 138.82,61.52 138.82,58.01 Z M 139.64,75.93 C 139.64,72.35 141.24,70.65 143.91,70.65 H 144.52 C 147.26,70.65 148.89,72.15 148.89,75.53 V 107.04 C 148.89,110.42 147.26,112.19 144.52,112.19 H 144.12 C 141.62,112.19 139.64,110.42 139.64,107.04 V 75.93 Z" fill="#F05023"/>
<path d="M 161.34,79.93 H 158.67 C 155.59,79.93 153.75,78.4 153.75,75.83 V 75.39 C 153.75,72.82 155.45,71.3 158.67,71.3 H 161.54 V 63.35 C 161.54,60.04 163.24,57.87 166.11,57.87 H 166.72 C 169.39,57.87 170.82,59.4 170.82,62.71 V 70.59 H 178.43 C 181.81,70.59 183.21,72.11 183.21,74.68 V 75.12 C 183.21,77.86 181.61,79.45 178.23,79.45 H 170.62 V 96.61 C 170.62,102.11 172.46,103.78 176.71,103.78 H 178.78 C 181.45,103.78 182.81,105.17 182.81,107.74 V 108.14 C 182.81,110.81 181.45,112.17 178.51,112.17 H 175.64 C 166.15,112.17 161.34,107.67 161.34,96.74 V 79.93 Z" fill="#F05023"/>
<path d="M 186.28,91.79 C 186.28,79.45 195.03,69.55 207.51,69.55 H 208.26 C 218.91,69.55 228.54,76.14 228.54,88.96 V 106.91 C 228.54,110.29 226.41,111.81 223.81,112.11 H 223.4 C 220.73,112.11 219.37,110.21 219.16,107.12 V 106.91 C 216.01,110.62 211.76,112.92 206.36,112.92 C 195.43,112.92 186.28,104.61 186.28,91.79 Z M 218.85,92.81 V 89.3 C 218.85,81.95 213.91,78.64 207.99,78.64 H 207.58 C 200.11,78.64 195.86,83.82 195.86,91.73 C 195.86,99.87 200.45,103.99 207.31,103.99 H 207.72 C 214.11,103.99 218.85,99.33 218.85,92.81 Z" fill="#F05023"/>
<path d="M 237.29,59.02 C 237.29,55.44 239.06,53.67 241.66,53.67 H 242.34 C 244.94,53.67 246.57,55.3 246.57,58.88 V 107.04 C 246.57,110.42 244.87,112.19 242.2,112.19 H 241.52 C 238.92,112.19 237.29,110.42 237.29,107.04 V 59.02 Z" fill="#F05023"/>
<path d="M 92.04,58.95 C 92.04,55.57 93.67,53.67 96.34,53.67 H 96.82 C 99.39,53.67 101.36,55.13 101.36,59.02 V 75.73 C 105.25,71.13 108.94,69.54 114.21,69.54 H 114.75 C 126.21,69.54 133.34,78.97 133.34,90.77 C 133.34,103.86 123.95,112.92 113.16,112.92 H 112.41 C 101.16,112.92 92.04,105.92 92.04,94.26 V 58.95 Z M 124.02,91.38 C 124.02,83.07 119.84,78.3 113.26,78.3 H 112.85 C 105.78,78.3 101.83,83.01 101.83,89.95 V 92.91 C 101.83,100.66 106.22,103.97 112.92,103.97 H 113.26 C 120.05,103.97 124.02,98.92 124.02,91.38 Z" fill="#F05023"/>
<path d="M 60.21,75.52 C 60.21,72.14 61.98,70.51 64.41,70.51 H 64.82 C 67.32,70.51 68.71,72.04 69.05,75.93 C 72.13,71.81 75.44,69.77 80.71,69.77 C 85.71,69.77 87.85,72.01 87.85,75.04 C 87.85,77.94 85.58,79.78 83.45,79.78 C 82.22,79.78 81.61,78.97 79.11,78.97 C 72.73,78.97 68.91,82.62 68.91,90.63 V 107.03 C 68.91,110.41 67.21,112.18 64.54,112.18 H 63.93 C 61.33,112.18 60.21,110.41 60.21,107.03 V 75.52 Z" fill="#F05023"/>
<path d="M 14.69,104.76 C 8.02,96.71 9.04,81.16 18.88,73.68 C 23.62,70.03 28.89,69.42 33.34,69.42 H 33.88 C 39.87,69.42 44.84,70.92 47.44,74.5 C 33.78,82.48 22.47,90.91 14.69,104.76 Z" fill="#F05023"/>
<path d="M 48.83,76.61 C 54.85,82.63 55.19,93.62 51.61,100.83 C 46.87,109.31 39.73,112.72 31.72,112.72 H 31.11 C 25.12,112.72 20.01,110.12 16.43,107.52 C 23.08,94.03 33.18,85.72 48.83,76.61 Z" fill="#F05023"/>
</svg>